<svg width="24" height="24" viewBox="0 0 24 24" fill="none" xmlns="http://www.w3.org/2000/svg">
<path d="M22.125 15.6281V6.24375C22.125 5.90156 21.8484 5.625 21.5062 5.625H18.3328C17.9578 2.46094 15.2625 0 12 0C8.7375 0 6.04219 2.46094 5.66719 5.625H2.49375C2.15156 5.625 1.875 5.90156 1.875 6.24375V23.3812C1.875 23.7234 2.15156 24 2.49375 24H20.25H21.2484C21.7312 24 22.125 23.6062 22.125 23.1234V22.125V15.6281ZM12 1.875C14.2266 1.875 16.0781 3.50156 16.4391 5.625H7.56094C7.92188 3.50156 9.77344 1.875 12 1.875ZM20.25 22.125H3.75V7.5H5.625V10.4906C5.625 10.6922 5.71875 10.8797 5.87813 11.0016C6.65156 11.5875 7.5 11.0484 7.5 10.3125V7.5H16.5V10.4906C16.5 10.6922 16.5938 10.8797 16.7531 11.0016C17.5266 11.5875 18.375 11.0484 18.375 10.3125V7.5H20.25V22.125Z" fill="#706F6F"/>
</svg>
