<svg width="24" height="24" viewBox="0 0 24 24" fill="none" xmlns="http://www.w3.org/2000/svg">
<g clip-path="url(#clip0)">
<path d="M21.6702 2.93884C19.1155 0.763837 15.2952 1.12477 12.9233 3.57165L11.9998 4.5279L11.0764 3.57634C9.16391 1.59821 5.30609 0.407587 2.32953 2.93884C-0.61422 5.45134 -0.768907 9.96071 1.86547 12.6795L10.9358 22.0451C11.2264 22.3451 11.6108 22.4998 11.9952 22.4998C12.3795 22.4998 12.7639 22.3498 13.0545 22.0451L22.1248 12.6795C24.7686 9.96071 24.6139 5.45134 21.6702 2.93884ZM21.0561 11.6388L12.0186 21.0045L2.94359 11.6388C1.14359 9.78259 0.768593 6.24352 3.30453 4.08259C5.87328 1.88884 8.89203 3.4779 9.99828 4.62165L11.9998 6.68884L14.0014 4.62165C15.0889 3.49665 18.1358 1.9029 20.6952 4.08259C23.2264 6.23884 22.8561 9.7779 21.0561 11.6388Z" fill="#706F6F"/>
</g>
<defs>
<clipPath id="clip0">
<rect width="24" height="24" fill="white"/>
</clipPath>
</defs>
</svg>
