<svg width="24" height="24" viewBox="0 0 24 24" fill="none" xmlns="http://www.w3.org/2000/svg">
<g clip-path="url(#clip0)">
<path d="M17.5069 14.307L17.4979 14.382C15.2989 13.286 15.0689 13.14 14.7849 13.566C14.5879 13.861 14.0139 14.53 13.8409 14.728C13.6659 14.923 13.4919 14.938 13.1949 14.803C12.8949 14.653 11.9319 14.338 10.7919 13.318C9.90389 12.523 9.30789 11.548 9.13189 11.248C8.83889 10.742 9.45189 10.67 10.0099 9.614C10.1099 9.404 10.0589 9.239 9.98489 9.09C9.90989 8.94 9.31289 7.47 9.06289 6.884C8.82289 6.3 8.57589 6.374 8.39089 6.374C7.81489 6.324 7.39389 6.332 7.02289 6.718C5.40889 8.492 5.81589 10.322 7.19689 12.268C9.91089 15.82 11.3569 16.474 14.0009 17.382C14.7149 17.609 15.3659 17.577 15.8809 17.503C16.4549 17.412 17.6479 16.782 17.8969 16.077C18.1519 15.372 18.1519 14.787 18.0769 14.652C18.0029 14.517 17.8069 14.442 17.5069 14.307Z" fill="#706F6F"/>
<path d="M20.52 3.4489C12.831 -3.98411 0.106 1.4069 0.101 11.8929C0.101 13.9889 0.65 16.0329 1.696 17.8379L0 23.9999L6.335 22.3479C14.24 26.6179 23.996 20.9479 24 11.8989C24 8.72291 22.76 5.7339 20.505 3.4879L20.52 3.4489ZM22.002 11.8659C21.996 19.4989 13.617 24.2659 6.99 20.3699L6.63 20.1559L2.88 21.1309L3.885 17.4859L3.646 17.1109C-0.478 10.5459 4.26 1.9659 12.072 1.9659C14.726 1.9659 17.217 3.0009 19.093 4.8759C20.968 6.7349 22.002 9.22591 22.002 11.8659Z" fill="#706F6F"/>
</g>
<defs>
<clipPath id="clip0">
<rect width="24" height="24" fill="white"/>
</clipPath>
</defs>
</svg>
