<svg width="18" height="18" viewBox="0 0 18 18" fill="none" xmlns="http://www.w3.org/2000/svg">
<g clip-path="url(#clip0)">
<path d="M9.00278 4.3786C6.45053 4.3786 4.38428 6.4471 4.38428 8.9971C4.38428 11.5494 6.45278 13.6156 9.00278 13.6156C11.555 13.6156 13.6213 11.5471 13.6213 8.9971C13.6213 6.44485 11.5528 4.3786 9.00278 4.3786ZM9.00278 11.9949C7.34603 11.9949 6.00503 10.6531 6.00503 8.9971C6.00503 7.3411 7.34678 5.99935 9.00278 5.99935C10.6588 5.99935 12.0005 7.3411 12.0005 8.9971C12.0013 10.6531 10.6595 11.9949 9.00278 11.9949Z" fill="#706F6F"/>
<path d="M12.7112 0.0570893C11.0552 -0.0201607 6.95342 -0.0164107 5.29592 0.0570893C3.83942 0.125339 2.55467 0.477089 1.51892 1.51284C-0.21208 3.24384 0.00917045 5.57634 0.00917045 8.99709C0.00917045 12.4981 -0.18583 14.7766 1.51892 16.4813C3.25667 18.2183 5.62292 17.9911 9.00317 17.9911C12.4712 17.9911 13.6682 17.9933 14.8944 17.5186C16.5617 16.8713 17.8202 15.3811 17.9432 12.7043C18.0212 11.0476 18.0167 6.94659 17.9432 5.28909C17.7947 2.12934 16.0989 0.213089 12.7112 0.0570893ZM15.3324 15.3361C14.1977 16.4708 12.6234 16.3696 8.98142 16.3696C5.23142 16.3696 3.72767 16.4251 2.63042 15.3248C1.36667 14.0671 1.59542 12.0473 1.59542 8.98509C1.59542 4.84134 1.17017 1.85709 5.32892 1.64409C6.28442 1.61034 6.56567 1.59909 8.97092 1.59909L9.00467 1.62159C13.0014 1.62159 16.1372 1.20309 16.3254 5.36109C16.3682 6.30984 16.3779 6.59484 16.3779 8.99634C16.3772 12.7028 16.4477 14.2156 15.3324 15.3361Z" fill="#706F6F"/>
<path d="M13.8043 5.27538C14.4004 5.27538 14.8836 4.79218 14.8836 4.19613C14.8836 3.60008 14.4004 3.11688 13.8043 3.11688C13.2083 3.11688 12.7251 3.60008 12.7251 4.19613C12.7251 4.79218 13.2083 5.27538 13.8043 5.27538Z" fill="#706F6F"/>
</g>
<defs>
<clipPath id="clip0">
<rect width="18" height="18" fill="white"/>
</clipPath>
</defs>
</svg>
