<svg width="60" height="60" viewBox="0 0 60 60" fill="none" xmlns="http://www.w3.org/2000/svg">
<g clip-path="url(#clip0)">
<path d="M41.0625 37.5C45.3398 37.5 48.7031 34.3242 48.7266 30.1406C48.7734 22.5469 48.7617 14.9531 48.7266 7.34766C48.7148 4.14844 46.6055 1.37109 43.5703 0.375C43.125 0.234375 42.6445 0.128906 42.1875 0C30.3047 0 18.4336 0 6.5625 0C6.08203 0.128906 5.58984 0.222656 5.12109 0.398438C2.34375 1.42969 0.65625 3.38672 0.105469 6.30469C0.09375 6.39844 0.0351562 6.48047 0 6.5625C0 19.4883 0 32.4141 0 45.3516C0.375 46.6055 1.51172 47.1211 2.42578 46.7578C2.87109 46.582 3.26953 46.2773 3.64453 45.9727C6.87891 43.2891 10.1016 40.6055 13.3125 37.9102C13.6641 37.6172 14.0156 37.5 14.4727 37.5C23.332 37.5 32.1914 37.5117 41.0625 37.5ZM13.6523 33.7383C12.8203 33.7383 12.1523 33.9844 11.5195 34.5117C9.11719 36.5391 6.69141 38.543 4.27734 40.5586C4.14844 40.6758 4.00781 40.7812 3.75 40.9805C3.75 40.6406 3.75 40.4297 3.75 40.2305C3.75 29.4727 3.75 18.7148 3.75 7.95703C3.75 5.27344 5.27344 3.75 7.96875 3.75C18.9023 3.75 29.8359 3.75 40.7695 3.75C43.4883 3.75 44.9883 5.26172 45 8.00391C45 15.1641 45 22.3359 45 29.4961C45 32.2383 43.5 33.75 40.7695 33.75C31.7344 33.75 22.6875 33.7617 13.6523 33.7383Z" fill="#EC8899"/>
<path d="M60 22.8047C60 22.5468 60 22.3008 59.9883 22.0429C59.7773 18.164 56.4258 14.9883 52.582 15C51.5156 15 50.6836 15.7617 50.6367 16.7812C50.5898 17.8008 51.3398 18.7031 52.4062 18.7265C54.5976 18.7734 56.2851 20.4375 56.2734 22.9687C56.2265 33.1406 56.25 43.3125 56.25 53.4961C56.25 53.6836 56.25 53.8828 56.25 54.1992C55.9922 54 55.8398 53.8945 55.6875 53.7773C53.9062 52.3476 52.1133 50.9414 50.3437 49.4882C49.7109 48.9726 49.0195 48.7383 48.1992 48.7383C39.8203 48.75 31.4414 48.75 23.0625 48.75C20.2148 48.75 18.75 47.2734 18.75 44.414C18.75 43.9453 18.7734 43.4765 18.7383 43.0078C18.6679 42.0351 17.8945 41.2968 16.9336 41.2617C15.9844 41.2265 15.0586 41.9297 15.0351 42.8906C15 44.1328 14.9531 45.4101 15.2109 46.6172C15.9492 50.1797 18.9609 52.5 22.6523 52.5117C30.8789 52.5234 39.0937 52.5234 47.3203 52.5C47.8593 52.5 48.2695 52.6406 48.6914 52.9804C51.3633 55.1484 54.0469 57.2812 56.7304 59.4258C57.6562 60.164 58.5937 60.1992 59.3437 59.5429C59.8945 59.0625 60 58.4297 60 57.7383C59.9883 46.0898 60 34.4531 60 22.8047Z" fill="#EC8899"/>
<path d="M35.9883 11.2969C35.7187 11.2383 35.4492 11.25 35.168 11.25C27.9609 11.25 20.7656 11.25 13.5586 11.25C13.3594 11.25 13.1719 11.2383 12.9726 11.2617C12.2109 11.3437 11.6601 11.7422 11.3789 12.457C10.8867 13.7227 11.8125 14.9883 13.2539 14.9883C16.9687 15 20.6719 14.9883 24.3867 14.9883C26.0625 14.9883 27.75 14.9883 29.4258 14.9883C31.5 14.9883 33.5625 15 35.6367 14.9766C36.6328 14.9648 37.4062 14.2383 37.5 13.2891C37.582 12.3633 36.9375 11.4844 35.9883 11.2969Z" fill="#EC8899"/>
<path d="M28.0664 18.7617C25.6054 18.7383 23.1445 18.7617 20.6836 18.7617C18.1992 18.7617 15.7265 18.7617 13.2421 18.7617C12.375 18.7617 11.7304 19.1367 11.3906 19.9336C10.8632 21.1875 11.789 22.5 13.207 22.5C16.1601 22.5117 19.1015 22.5 22.0547 22.5C24.0468 22.5 26.039 22.5 28.0312 22.5C28.875 22.5 29.5078 22.125 29.8476 21.3516C30.3867 20.1094 29.4726 18.7734 28.0664 18.7617Z" fill="#EC8899"/>
</g>
<defs>
<clipPath id="clip0">
<rect width="60" height="60" fill="white"/>
</clipPath>
</defs>
</svg>
