<svg width="60" height="60" viewBox="0 0 60 60" fill="none" xmlns="http://www.w3.org/2000/svg">
<g clip-path="url(#clip0)">
<path d="M45.315 35.6722C41.1446 35.6722 37.752 39.0649 37.752 43.2353C37.752 47.4056 41.1446 50.7983 45.315 50.7983C49.4861 50.7983 52.878 47.4056 52.878 43.2353C52.878 39.0649 49.4854 35.6722 45.315 35.6722ZM45.315 47.0168C43.2295 47.0168 41.5335 45.3208 41.5335 43.2353C41.5335 41.1498 43.2295 39.4538 45.315 39.4538C47.4005 39.4538 49.0965 41.1498 49.0965 43.2353C49.0965 45.3209 47.4005 47.0168 45.315 47.0168Z" fill="#EC8899"/>
<path d="M19.4749 35.6722C15.3046 35.6722 11.9119 39.0649 11.9119 43.2353C11.9119 47.4056 15.3046 50.7983 19.4749 50.7983C23.6453 50.7983 27.038 47.4056 27.038 43.2353C27.038 39.0649 23.6453 35.6722 19.4749 35.6722ZM19.4749 47.0168C17.3894 47.0168 15.6934 45.3208 15.6934 43.2353C15.6934 41.1498 17.3894 39.4538 19.4749 39.4538C21.5598 39.4538 23.2564 41.1498 23.2564 43.2353C23.2564 45.3209 21.5604 47.0168 19.4749 47.0168Z" fill="#EC8899"/>
<path d="M50.4082 14.0244C50.0868 13.386 49.4332 12.9832 48.7185 12.9832H38.7605V16.7647H47.5525L52.701 27.0051L56.0805 25.3058L50.4082 14.0244Z" fill="#EC8899"/>
<path d="M39.6429 41.4077H25.3362V45.1892H39.6429V41.4077Z" fill="#EC8899"/>
<path d="M13.8024 41.4077H7.24788C6.20351 41.4077 5.35718 42.2541 5.35718 43.2984C5.35718 44.3427 6.20362 45.1891 7.24788 45.1891H13.8025C14.8469 45.1891 15.6932 44.3426 15.6932 43.2984C15.6932 42.254 14.8468 41.4077 13.8024 41.4077Z" fill="#EC8899"/>
<path d="M59.6029 29.8487L55.8839 25.0588C55.5266 24.5975 54.9751 24.3277 54.3908 24.3277H40.6512V11.0924C40.6512 10.048 39.8048 9.20172 38.7605 9.20172H7.24788C6.20351 9.20172 5.35718 10.0482 5.35718 11.0924C5.35718 12.1367 6.20362 12.9831 7.24788 12.9831H36.8697V26.2184C36.8697 27.2628 37.7162 28.1091 38.7604 28.1091H53.4649L56.2184 31.6561V41.4074H50.9873C49.9429 41.4074 49.0966 42.2539 49.0966 43.2981C49.0966 44.3425 49.943 45.1888 50.9873 45.1888H58.1091C59.1535 45.1888 59.9998 44.3424 60 43.2981V31.0084C60 30.5887 59.86 30.1803 59.6029 29.8487Z" fill="#EC8899"/>
<path d="M13.6764 31.8278H4.97884C3.93446 31.8278 3.08813 32.6742 3.08813 33.7185C3.08813 34.7628 3.93458 35.6092 4.97884 35.6092H13.6763C14.7206 35.6092 15.567 34.7627 15.567 33.7185C15.5671 32.6742 14.7206 31.8278 13.6764 31.8278Z" fill="#EC8899"/>
<path d="M18.0252 24.3907H1.8907C0.846445 24.3907 0 25.2371 0 26.2815C0 27.3259 0.846445 28.1722 1.8907 28.1722H18.0252C19.0696 28.1722 19.9159 27.3258 19.9159 26.2815C19.9159 25.2372 19.0696 24.3907 18.0252 24.3907Z" fill="#EC8899"/>
<path d="M21.1133 16.9537H4.97884C3.93446 16.9537 3.08813 17.8002 3.08813 18.8444C3.08813 19.8888 3.93458 20.7351 4.97884 20.7351H21.1133C22.1577 20.7351 23.004 19.8887 23.004 18.8444C23.0042 17.8002 22.1577 16.9537 21.1133 16.9537Z" fill="#EC8899"/>
</g>
<defs>
<clipPath id="clip0">
<rect width="60" height="60" fill="white"/>
</clipPath>
</defs>
</svg>
