<svg width="60" height="60" viewBox="0 0 60 60" fill="none" xmlns="http://www.w3.org/2000/svg">
<path d="M41.4962 46.8284L38.3066 43.2208L35.6729 45.5496L41.3828 52.0075L50.6311 42.4278L48.1019 39.9861L41.4962 46.8284Z" fill="#EC8899"/>
<path d="M43.2953 31.0936C42.9748 31.0936 42.657 31.1052 42.3416 31.1258L41.3223 13.6783H33.0044V10.2857C33.0043 4.61416 28.3902 0 22.7186 0C17.0471 0 12.4329 4.61416 12.4329 10.2857V13.6783H4.11491L2.26733 45.3042C2.12354 47.7666 2.97643 50.111 4.66898 51.9052C6.36152 53.6995 8.65208 54.6876 11.1187 54.6876H32.1084C34.7611 57.9281 38.7906 60 43.2953 60C51.2648 60 57.7485 53.5163 57.7485 45.5469C57.7485 37.5773 51.2648 31.0936 43.2953 31.0936ZM15.9484 10.2857C15.9484 6.55268 18.9855 3.51564 22.7185 3.51564C26.4515 3.51564 29.4887 6.55268 29.4887 10.2857V13.6783H15.9484V10.2857ZM11.1187 51.172C9.63013 51.172 8.24778 50.5756 7.22637 49.4928C6.20496 48.41 5.69027 46.9952 5.77699 45.5092L7.4311 17.1941H12.4328V21.5989H15.9484V17.1941H29.4887V21.5989H33.0043V17.1941H38.006L38.8588 31.7912C33.0532 33.6681 28.8422 39.1246 28.8422 45.547C28.8422 47.5412 29.2482 49.4423 29.9818 51.1721H11.1187V51.172ZM43.2953 56.4844C37.2643 56.4844 32.3578 51.5778 32.3578 45.5469C32.3578 39.5158 37.2643 34.6092 43.2953 34.6092C49.3263 34.6092 54.2328 39.5158 54.2328 45.5469C54.2328 51.5778 49.3263 56.4844 43.2953 56.4844Z" fill="#EC8899"/>
</svg>
