<svg width="18" height="18" viewBox="0 0 18 18" fill="none" xmlns="http://www.w3.org/2000/svg">
<g clip-path="url(#clip0)">
<path d="M9.00302 4.37842C6.45077 4.37842 4.38452 6.44692 4.38452 8.99692C4.38452 11.5492 6.45302 13.6154 9.00302 13.6154C11.5553 13.6154 13.6215 11.5469 13.6215 8.99692C13.6215 6.44467 11.553 4.37842 9.00302 4.37842ZM9.00302 11.9947C7.34627 11.9947 6.00527 10.6529 6.00527 8.99692C6.00527 7.34092 7.34702 5.99917 9.00302 5.99917C10.659 5.99917 12.0008 7.34092 12.0008 8.99692C12.0015 10.6529 10.6598 11.9947 9.00302 11.9947Z" fill="white"/>
<path d="M12.7109 0.0570283C11.0549 -0.0202217 6.95318 -0.0164717 5.29568 0.0570283C3.83918 0.125278 2.55443 0.477028 1.51868 1.51278C-0.212324 3.24378 0.00892631 5.57628 0.00892631 8.99703C0.00892631 12.498 -0.186074 14.7765 1.51868 16.4813C3.25643 18.2183 5.62268 17.991 9.00293 17.991C12.4709 17.991 13.6679 17.9933 14.8942 17.5185C16.5614 16.8713 17.8199 15.381 17.9429 12.7043C18.0209 11.0475 18.0164 6.94653 17.9429 5.28903C17.7944 2.12928 16.0987 0.213028 12.7109 0.0570283ZM15.3322 15.336C14.1974 16.4708 12.6232 16.3695 8.98118 16.3695C5.23118 16.3695 3.72743 16.425 2.63018 15.3248C1.36643 14.067 1.59518 12.0473 1.59518 8.98503C1.59518 4.84128 1.16993 1.85703 5.32868 1.64403C6.28418 1.61028 6.56543 1.59903 8.97068 1.59903L9.00443 1.62153C13.0012 1.62153 16.1369 1.20303 16.3252 5.36103C16.3679 6.30978 16.3777 6.59478 16.3777 8.99628C16.3769 12.7028 16.4474 14.2155 15.3322 15.336Z" fill="white"/>
<path d="M13.8046 5.27519C14.4006 5.27519 14.8838 4.792 14.8838 4.19595C14.8838 3.59989 14.4006 3.1167 13.8046 3.1167C13.2085 3.1167 12.7253 3.59989 12.7253 4.19595C12.7253 4.792 13.2085 5.27519 13.8046 5.27519Z" fill="white"/>
</g>
<defs>
<clipPath id="clip0">
<rect width="18" height="18" fill="white"/>
</clipPath>
</defs>
</svg>
