<svg width="14" height="16" viewBox="0 0 14 16" fill="none" xmlns="http://www.w3.org/2000/svg">
<path d="M13.75 10.4187V4.1625C13.75 3.93437 13.5656 3.75 13.3375 3.75H11.2219C10.9719 1.64062 9.175 0 7 0C4.825 0 3.02813 1.64062 2.77813 3.75H0.6625C0.434375 3.75 0.25 3.93437 0.25 4.1625V15.5875C0.25 15.8156 0.434375 16 0.6625 16H12.5H13.1656C13.4875 16 13.75 15.7375 13.75 15.4156V14.75V10.4187ZM7 1.25C8.48438 1.25 9.71875 2.33437 9.95938 3.75H4.04063C4.28125 2.33437 5.51562 1.25 7 1.25ZM12.5 14.75H1.5V5H2.75V6.99375C2.75 7.12813 2.8125 7.25312 2.91875 7.33437C3.43438 7.725 4 7.36562 4 6.875V5H10V6.99375C10 7.12813 10.0625 7.25312 10.1687 7.33437C10.6844 7.725 11.25 7.36562 11.25 6.875V5H12.5V14.75Z" fill="white"/>
</svg>
