<svg width="24" height="22" viewBox="0 0 24 22" fill="none" xmlns="http://www.w3.org/2000/svg">
<path d="M21.6702 1.93933C19.1155 -0.235675 15.2952 0.125263 12.9233 2.57214L11.9998 3.52839L11.0764 2.57683C9.16391 0.598701 5.30609 -0.591925 2.32953 1.93933C-0.61422 4.45183 -0.768907 8.9612 1.86547 11.68L10.9358 21.0456C11.2264 21.3456 11.6108 21.5003 11.9952 21.5003C12.3795 21.5003 12.7639 21.3503 13.0545 21.0456L22.1248 11.68C24.7686 8.9612 24.6139 4.45183 21.6702 1.93933ZM21.0561 10.6393L12.0186 20.005L2.94359 10.6393C1.14359 8.78308 0.768593 5.24401 3.30453 3.08308C5.87328 0.889326 8.89203 2.47839 9.99828 3.62214L11.9998 5.68933L14.0014 3.62214C15.0889 2.49714 18.1358 0.903388 20.6952 3.08308C23.2264 5.23933 22.8561 8.77839 21.0561 10.6393Z" fill="#706F6F"/>
</svg>
